<svg version="1.1" id="Layer_1" xmlns="http://www.w3.org/2000/svg" xmlns:xlink="http://www.w3.org/1999/xlink" x="0px" y="0px"
	 width="100%" viewBox="0 0 512 512" enable-background="new 0 0 512 512" xml:space="preserve">
<path fill="#FFBC42" opacity="1.000000" stroke="none" 
	d="
M64.984650,401.858612 
	C66.315262,385.072479 67.650200,368.286713 68.973656,351.500031 
	C69.332458,346.948975 69.656563,342.395172 70.538300,337.422180 
	C84.230827,337.001343 97.381683,337.017548 110.532463,336.994019 
	C117.561813,336.981445 119.811577,335.232849 121.177116,328.485779 
	C125.826859,305.511505 130.457413,282.533112 134.990265,259.535614 
	C135.818649,255.332840 137.373581,250.764999 136.506973,246.824463 
	C132.759781,229.785568 128.283249,212.905258 123.900169,196.011871 
	C123.592308,194.825317 121.901779,193.148697 120.837135,193.136047 
	C107.209671,192.974136 93.579079,193.074341 79.949287,193.108047 
	C63.255432,190.616776 48.312687,184.160263 36.584766,171.908493 
	C23.988071,158.749115 17.143642,142.829071 17.017776,124.376534 
	C16.925755,110.885414 16.782845,97.388794 17.055035,83.902542 
	C17.390980,67.257431 24.033751,53.024860 34.873287,40.664825 
	C46.289074,27.647709 60.928642,20.357374 77.754021,17.165333 
	C79.364250,16.859846 81.067261,17.005447 82.727196,17.005287 
	C149.019958,16.998861 215.312759,17.044838 281.605438,16.969082 
	C298.841309,16.949385 310.488861,25.295336 318.063080,41.011944 
	C319.095947,47.603733 320.862305,53.443695 320.925049,59.301903 
	C321.223877,87.198036 321.284546,115.102013 320.926422,142.996735 
	C320.814972,151.678009 319.123413,160.338974 318.155212,169.009247 
	C314.120270,181.592224 297.450287,193.512619 283.876953,193.099289 
	C269.572876,192.663696 255.244888,193.013397 240.000000,193.025528 
	C219.355194,193.031052 199.637756,193.031052 179.468674,193.031052 
	C179.995346,195.407379 180.414551,197.000427 180.696747,198.617401 
	C184.111694,218.184387 193.449265,236.603195 192.041260,257.104553 
	C189.223373,267.360748 186.332504,277.597595 183.601913,287.876984 
	C176.678986,313.938477 169.703079,339.987732 163.129654,366.137726 
	C162.425049,368.940765 163.850052,372.516602 164.948090,375.489899 
	C168.012192,383.786743 171.423660,391.955261 174.383286,400.571899 
	C151.300583,400.979584 128.531982,400.892273 105.764847,401.036682 
	C92.170258,401.122894 78.577965,401.572418 64.984650,401.858612 
M136.499847,144.992142 
	C141.661407,144.991486 146.823151,145.017700 151.984512,144.985062 
	C166.416901,144.893814 176.925140,134.465454 176.990021,120.128830 
	C177.035233,110.138855 177.025421,100.148415 176.992844,90.158340 
	C176.944763,75.416718 166.573578,65.037033 151.811981,65.010246 
	C131.332169,64.973076 110.852196,64.977272 90.372368,65.008842 
	C75.612892,65.031593 65.166809,75.356255 65.040718,90.079475 
	C64.958015,99.735954 64.991882,109.393829 65.030373,119.050850 
	C65.093018,134.769455 75.296471,144.947433 91.043625,144.984161 
	C105.862328,145.018723 120.681160,144.991913 136.499847,144.992142 
M268.297089,80.275826 
	C272.309845,78.259666 273.759338,74.923065 272.612640,70.735321 
	C271.423492,66.392448 268.054169,64.976936 263.778961,64.985405 
	C243.306396,65.025970 222.833633,64.971359 202.361115,65.022194 
	C196.155075,65.037605 193.043961,67.766945 193.003220,72.895844 
	C192.960693,78.250305 196.103439,80.950485 202.652328,80.984268 
	C212.971603,81.037498 223.291687,81.053169 233.610794,80.985542 
	C244.915955,80.911461 256.220367,80.724808 268.297089,80.275826 
M267.520508,112.585960 
	C271.916718,110.859444 273.706451,107.527267 272.701752,103.055611 
	C271.782135,98.962700 268.769348,97.025948 264.613251,97.022430 
	C243.477722,97.004539 222.341797,96.949936 201.206848,97.062515 
	C195.939728,97.090569 192.984436,100.247726 193.000839,105.048538 
	C193.017258,109.853226 195.962128,112.927719 201.302307,112.940125 
	C223.100067,112.990761 244.898239,112.869568 267.520508,112.585960 
M230.500000,128.998779 
	C221.344254,128.999084 212.188400,128.972580 203.032791,129.008835 
	C196.547867,129.034515 193.113174,131.778885 193.038406,136.874832 
	C192.963165,142.001678 196.446732,144.974030 202.787048,144.984970 
	C222.929642,145.019745 243.072327,145.019791 263.214905,144.984955 
	C269.550354,144.973999 273.039734,141.994492 272.961243,136.870865 
	C272.883179,131.773453 269.451660,129.030869 262.962433,129.009109 
	C252.475067,128.973969 241.987488,128.999100 230.500000,128.998779 
z"/>
<path fill="#33658A" opacity="1.000000" stroke="none" 
	d="
M64.628868,401.929901 
	C78.577965,401.572418 92.170258,401.122894 105.764847,401.036682 
	C128.531982,400.892273 151.300583,400.979584 174.533844,400.903625 
	C184.661926,400.891968 194.324661,400.978882 203.987518,400.991943 
	C216.980362,401.009521 227.907532,406.091156 237.780106,414.211731 
	C248.048553,422.657959 254.300415,433.688812 256.428986,446.383026 
	C258.169861,456.764923 257.683533,467.539337 257.916992,478.145599 
	C258.010773,482.408264 257.575500,486.709930 257.044342,490.951660 
	C256.463287,495.591644 253.351761,497.079834 248.925705,497.038025 
	C235.928391,496.915100 222.929382,496.970886 209.466858,496.438721 
	C209.002945,486.591217 209.008942,477.261627 209.002213,467.932068 
	C208.989731,450.638397 199.377121,441.003906 182.107285,441.001038 
	C139.457779,440.993927 96.808273,440.993683 54.158772,441.014374 
	C52.171383,441.015320 50.184109,441.245422 48.196781,441.368774 
	C48.480568,434.103271 48.107964,426.735748 49.217148,419.598541 
	C50.552063,411.008820 56.266712,405.318237 64.628868,401.929901 
z"/>
<path fill="#FEBC42" opacity="1.000000" stroke="none" 
	d="
M48.201653,441.810669 
	C50.184109,441.245422 52.171383,441.015320 54.158772,441.014374 
	C96.808273,440.993683 139.457779,440.993927 182.107285,441.001038 
	C199.377121,441.003906 208.989731,450.638397 209.002213,467.932068 
	C209.008942,477.261627 209.002945,486.591217 209.001785,496.377930 
	C183.897202,496.890411 158.793549,496.964294 133.689850,496.995270 
	C113.238068,497.020508 92.785934,497.058411 72.334511,496.967529 
	C59.644020,496.911163 50.163578,488.681824 49.172253,476.016968 
	C48.294701,464.805634 48.486702,453.510590 48.201653,441.810669 
z"/>
<path fill="#34658A" opacity="1.000000" stroke="none" 
	d="
M79.967957,193.545944 
	C93.579079,193.074341 107.209671,192.974136 120.837135,193.136047 
	C121.901779,193.148697 123.592308,194.825317 123.900169,196.011871 
	C128.283249,212.905258 132.759781,229.785568 136.506973,246.824463 
	C137.373581,250.764999 135.818649,255.332840 134.990265,259.535614 
	C130.457413,282.533112 125.826859,305.511505 121.177116,328.485779 
	C119.811577,335.232849 117.561813,336.981445 110.532463,336.994019 
	C97.381683,337.017548 84.230827,337.001343 70.622772,337.002258 
	C71.080864,322.872589 71.991470,308.742004 72.913963,294.612213 
	C73.257912,289.343903 73.651237,284.078735 73.984627,278.809784 
	C75.005371,262.677582 75.921768,246.538208 77.045799,230.413284 
	C77.892914,218.260864 78.996956,206.126328 79.967957,193.545944 
z"/>
<path fill="#34658A" opacity="1.000000" stroke="none" 
	d="
M318.613831,169.006012 
	C319.123413,160.338974 320.814972,151.678009 320.926422,142.996735 
	C321.284546,115.102013 321.223877,87.198036 320.925049,59.301903 
	C320.862305,53.443695 319.095947,47.603733 318.137451,41.374538 
	C326.944611,40.995972 335.737976,41.251133 344.511017,40.937954 
	C356.077698,40.525059 363.409607,46.161987 367.979797,57.027161 
	C368.316071,61.273979 368.907745,64.735184 368.952942,68.203499 
	C369.085327,78.361427 369.106750,88.523552 368.976685,98.681541 
	C368.744598,116.801872 368.369537,134.920380 368.054260,153.039642 
	C364.448242,163.289902 356.597443,168.992447 346.071503,168.998550 
	C337.071808,169.003784 328.072113,169.001663 318.613831,169.006012 
z"/>
<path fill="#DBE9EE" opacity="1.000000" stroke="none" 
	d="
M368.517273,153.021484 
	C368.369537,134.920380 368.744598,116.801872 368.976685,98.681541 
	C369.106750,88.523552 369.085327,78.361427 368.952942,68.203499 
	C368.907745,64.735184 368.316071,61.273979 368.015076,57.386600 
	C376.703400,56.975800 385.401947,57.586746 393.985443,56.852638 
	C405.423798,55.874367 418.570892,68.552483 417.016663,80.926163 
	C417.037170,97.594398 417.045654,113.357941 417.054138,129.121490 
	C418.681671,141.893539 405.252106,154.486511 392.883118,153.158585 
	C385.000793,152.312332 376.953552,153.002197 368.517273,153.021484 
z"/>
<path fill="#C8D4D9" opacity="1.000000" stroke="none" 
	d="
M417.516541,129.066895 
	C417.045654,113.357941 417.037170,97.594398 417.041321,81.354675 
	C430.046509,80.918999 443.039978,80.892128 456.030975,81.057587 
	C458.588928,81.090179 461.379059,81.340797 463.648560,82.387543 
	C473.610352,86.982216 483.539307,91.685081 493.192230,96.883415 
	C495.307434,98.022484 497.440582,101.371407 497.401978,103.666252 
	C497.359253,106.205620 495.453522,109.754425 493.280548,111.038582 
	C483.404480,116.875092 473.190094,122.149261 462.992279,127.422340 
	C461.060516,128.421219 458.656525,128.908325 456.462677,128.932587 
	C443.636017,129.074402 430.807129,129.008255 417.516541,129.066895 
z"/>
<path fill="#34658A" opacity="1.000000" stroke="none" 
	d="
M192.505905,257.065430 
	C193.449265,236.603195 184.111694,218.184387 180.696747,198.617401 
	C180.414551,197.000427 179.995346,195.407379 179.468674,193.031052 
	C199.637756,193.031052 219.355194,193.031052 239.536377,193.098480 
	C235.996124,208.834671 231.999985,224.505447 227.982361,240.170700 
	C227.048813,243.810699 225.892197,247.399841 225.106995,251.069901 
	C224.126175,255.654373 221.242020,257.106201 216.867630,257.037262 
	C208.903854,256.911743 200.936447,257.017242 192.505905,257.065430 
z"/>
<path fill="#FF6B6B" opacity="1.000000" stroke="none" 
	d="
M135.999893,144.992126 
	C120.681160,144.991913 105.862328,145.018723 91.043625,144.984161 
	C75.296471,144.947433 65.093018,134.769455 65.030373,119.050850 
	C64.991882,109.393829 64.958015,99.735954 65.040718,90.079475 
	C65.166809,75.356255 75.612892,65.031593 90.372368,65.008842 
	C110.852196,64.977272 131.332169,64.973076 151.811981,65.010246 
	C166.573578,65.037033 176.944763,75.416718 176.992844,90.158340 
	C177.025421,100.148415 177.035233,110.138855 176.990021,120.128830 
	C176.925140,134.465454 166.416901,144.893814 151.984512,144.985062 
	C146.823151,145.017700 141.661407,144.991486 135.999893,144.992126 
z"/>
<path fill="#E8AB3C" opacity="1.000000" stroke="none" 
	d="
M267.911102,80.431519 
	C256.220367,80.724808 244.915955,80.911461 233.610794,80.985542 
	C223.291687,81.053169 212.971603,81.037498 202.652328,80.984268 
	C196.103439,80.950485 192.960693,78.250305 193.003220,72.895844 
	C193.043961,67.766945 196.155075,65.037605 202.361115,65.022194 
	C222.833633,64.971359 243.306396,65.025970 263.778961,64.985405 
	C268.054169,64.976936 271.423492,66.392448 272.612640,70.735321 
	C273.759338,74.923065 272.309845,78.259666 267.911102,80.431519 
z"/>
<path fill="#E8AB3C" opacity="1.000000" stroke="none" 
	d="
M267.108398,112.698822 
	C244.898239,112.869568 223.100067,112.990761 201.302307,112.940125 
	C195.962128,112.927719 193.017258,109.853226 193.000839,105.048538 
	C192.984436,100.247726 195.939728,97.090569 201.206848,97.062515 
	C222.341797,96.949936 243.477722,97.004539 264.613251,97.022430 
	C268.769348,97.025948 271.782135,98.962700 272.701752,103.055611 
	C273.706451,107.527267 271.916718,110.859444 267.108398,112.698822 
z"/>
<path fill="#E8AB3C" opacity="1.000000" stroke="none" 
	d="
M231.000000,128.998779 
	C241.987488,128.999100 252.475067,128.973969 262.962433,129.009109 
	C269.451660,129.030869 272.883179,131.773453 272.961243,136.870865 
	C273.039734,141.994492 269.550354,144.973999 263.214905,144.984955 
	C243.072327,145.019791 222.929642,145.019745 202.787048,144.984970 
	C196.446732,144.974030 192.963165,142.001678 193.038406,136.874832 
	C193.113174,131.778885 196.547867,129.034515 203.032791,129.008835 
	C212.188400,128.972580 221.344254,128.999084 231.000000,128.998779 
z"/>
</svg>