<svg version="1.1" id="Layer_1" xmlns="http://www.w3.org/2000/svg" xmlns:xlink="http://www.w3.org/1999/xlink" x="0px" y="0px"
	 width="100%" viewBox="0 0 128 128" enable-background="new 0 0 128 128" xml:space="preserve">
<path fill="#403B41" opacity="1.000000" stroke="none" 
	d="
M129.000000,60.555836 
	C125.428162,64.035042 121.847099,67.059303 118.287460,70.108589 
	C115.526604,72.473618 113.049622,77.326302 109.047058,74.800629 
	C105.041153,72.272850 102.312393,67.713760 99.044975,64.026321 
	C97.578773,62.371635 96.164108,60.671268 94.444260,58.612289 
	C100.099640,52.490154 106.036812,46.747364 111.973984,41.004570 
	C114.189331,42.370422 116.478195,43.632374 118.598473,45.132587 
	C120.554764,46.516762 122.329002,48.158024 124.185600,49.683403 
	C125.555290,50.808743 126.928467,51.929825 128.650055,53.026402 
	C129.000000,55.370556 129.000000,57.741116 129.000000,60.555836 
z"/>
<path fill="#FE4A4A" opacity="1.000000" stroke="none" 
	d="
M5.891759,118.101761 
	C4.393303,116.842911 2.894847,115.584061 1.198195,114.662613 
	C1.000000,112.958336 1.000000,110.916664 0.999999,108.437500 
	C2.182190,107.312897 3.572428,106.836441 4.514370,105.906097 
	C13.845191,96.690086 23.101805,87.398926 33.145126,78.040009 
	C37.602364,78.022087 41.293888,78.093193 44.904419,78.485764 
	C31.846203,91.905411 18.868980,105.003586 5.891759,118.101761 
z"/>
<path fill="#766D78" opacity="1.000000" stroke="none" 
	d="
M82.997826,13.032030 
	C89.539566,9.643508 91.395149,9.906429 96.463913,14.977210 
	C98.583107,17.097250 100.680206,19.239363 102.626175,21.842028 
	C93.606453,31.172729 84.747910,40.032845 75.736404,48.894665 
	C75.583450,48.896366 75.276207,48.910862 75.094223,48.625168 
	C72.603699,46.286255 70.295158,44.233028 67.986626,42.179802 
	C63.696304,38.402576 64.182053,34.162426 67.285934,29.286442 
	C72.861382,23.580824 77.929604,18.306427 82.997826,13.032030 
z"/>
<path fill="#554E56" opacity="1.000000" stroke="none" 
	d="
M75.889359,48.892960 
	C84.747910,40.032845 93.606453,31.172729 102.759506,22.150801 
	C105.885727,24.677233 108.843193,27.247082 111.515327,30.085537 
	C114.447685,33.200405 114.322128,36.738068 112.082718,40.652641 
	C106.036812,46.747364 100.099640,52.490154 94.066040,58.553337 
	C89.878532,60.382557 86.085732,59.883076 82.285278,56.682461 
	C79.930794,53.748997 77.910080,51.320976 75.889359,48.892960 
z"/>
<path fill="#554E56" opacity="1.000000" stroke="none" 
	d="
M82.859222,12.710240 
	C77.929604,18.306427 72.861382,23.580824 67.474091,28.953636 
	C62.617172,23.831429 56.048363,22.910608 49.962349,21.035597 
	C47.287685,20.211576 44.711029,19.570597 45.022022,15.993176 
	C45.316345,12.607565 44.895130,9.010011 49.507622,7.722358 
	C61.307388,4.428258 72.357689,5.790788 82.859222,12.710240 
z"/>
<path fill="#FFCB01" opacity="1.000000" stroke="none" 
	d="
M67.863220,42.480591 
	C70.295158,44.233028 72.603699,46.286255 74.882507,48.900520 
	C65.544601,58.925682 56.236427,68.389793 46.604431,77.905464 
	C45.848881,78.026123 45.417149,78.095215 44.985416,78.164307 
	C41.293888,78.093193 37.602364,78.022087 33.453606,77.894394 
	C44.577526,66.152336 56.158672,54.466858 67.863220,42.480591 
z"/>
<path fill="#C93D50" opacity="1.000000" stroke="none" 
	d="
M44.904419,78.485771 
	C45.417149,78.095215 45.848881,78.026123 47.063339,77.950371 
	C51.609070,78.283524 55.372070,78.623337 59.135075,78.963150 
	C44.775002,93.476616 30.475054,108.051147 15.927601,122.374306 
	C14.892128,123.393806 11.855868,123.080833 10.087894,122.446091 
	C8.538308,121.889763 7.464155,120.009178 6.035876,118.407654 
	C18.868980,105.003586 31.846203,91.905411 44.904419,78.485771 
z"/>
<path fill="#FF8855" opacity="1.000000" stroke="none" 
	d="
M59.428059,78.831360 
	C55.372070,78.623337 51.609070,78.283524 47.387157,77.898811 
	C56.236427,68.389793 65.544601,58.925682 75.064491,49.186214 
	C75.276207,48.910862 75.583450,48.896366 75.736404,48.894661 
	C77.910080,51.320976 79.930794,53.748997 81.961479,56.515862 
	C74.554642,64.136330 67.137848,71.417953 59.428059,78.831360 
z"/>
</svg>