<svg version="1.1" id="Layer_1" xmlns="http://www.w3.org/2000/svg" xmlns:xlink="http://www.w3.org/1999/xlink" x="0px" y="0px"
	 width="100%" viewBox="0 0 512 512" enable-background="new 0 0 512 512" xml:space="preserve">
<path fill="#FCB732" opacity="1.000000" stroke="none"
	d="
M22.912533,469.952881 
	C26.126410,459.607849 28.780628,449.046936 32.669933,438.962402 
	C40.926792,417.553284 51.373371,397.187439 64.906456,378.587738 
	C71.910156,368.961945 79.177605,359.452850 87.124954,350.609100 
	C95.834633,340.917084 104.721695,331.117004 114.872055,323.051056 
	C129.340668,311.553680 144.654816,300.994781 160.316391,291.163879 
	C172.916763,283.254547 186.964966,277.662354 199.630997,269.843658 
	C210.199341,263.319824 214.787369,252.534210 216.096695,240.150467 
	C217.549469,226.410049 210.991455,215.625229 204.266724,204.769424 
	C202.044525,201.182144 199.757874,197.634537 197.554398,194.035919 
	C190.568665,182.627213 190.973801,163.176559 200.881454,153.297485 
	C246.858780,199.001923 292.351257,244.534698 337.833496,290.077698 
	C339.355804,291.602020 340.774750,293.229584 341.874329,294.983124 
	C332.694672,298.432434 324.034943,297.614777 315.885345,293.358612 
	C307.780243,289.125671 299.905548,284.426575 292.090393,279.668213 
	C269.853729,266.129089 242.563461,273.863831 230.926758,297.129456 
	C226.237335,306.505188 221.753525,315.989777 216.836990,325.244659 
	C205.132812,347.276520 190.553955,367.395386 173.073853,385.064819 
	C160.487030,397.787964 146.995529,409.901031 132.545807,420.414612 
	C118.642349,430.530823 102.988960,438.241974 88.125679,446.603943 
	C90.477211,436.453461 86.220848,428.315430 77.412781,425.674744 
	C69.459015,423.290192 60.950825,427.568878 58.024803,435.424774 
	C54.804577,444.070648 58.714722,451.905548 68.158836,456.664459 
	C52.799118,461.160187 37.855827,465.556549 22.912533,469.952881 
z"/>
<path fill="#016BDA" opacity="1.000000" stroke="none"
	d="
M297.076965,56.789719 
	C310.420929,43.779831 323.764893,30.769939 338.187164,16.708736 
	C363.999054,43.111565 390.343903,70.059578 416.924591,97.248817 
	C409.782135,106.855911 402.491882,116.661812 395.201630,126.467720 
	C395.418274,126.778931 395.634918,127.090141 395.851562,127.401344 
	C402.752563,124.643250 409.642120,121.855957 416.558685,119.137390 
	C421.103760,117.350960 425.626373,115.460251 430.290649,114.052132 
	C431.749329,113.611763 434.182373,114.015671 435.240692,115.015831 
	C442.617279,121.987274 449.749664,129.217102 457.327148,136.727798 
	C452.291779,144.380936 447.358154,151.879425 441.728271,160.436111 
	C449.053040,158.683701 455.392456,157.166611 461.732178,155.650726 
	C462.683533,155.423264 463.636322,155.201950 464.588226,154.976791 
	C474.481232,152.637024 474.976318,152.828033 480.674072,161.704697 
	C479.436005,162.751343 478.342773,163.248566 477.544495,164.042419 
	C466.351288,175.173904 455.184113,186.331741 444.062103,197.534332 
	C443.162598,198.440384 442.639954,199.720551 441.623779,200.891876 
	C440.878967,201.023636 440.452606,201.090408 439.585388,201.096039 
	C424.666962,200.923187 417.158508,206.132568 412.492218,219.526337 
	C409.167358,229.069641 401.645203,233.947250 391.739716,232.982849 
	C383.650055,232.195236 376.721375,225.502365 375.847534,216.294205 
	C374.244202,199.398163 373.272888,182.442520 371.999603,165.514618 
	C371.088470,153.401154 370.206940,141.284149 369.123352,129.185623 
	C368.687775,124.322342 365.259949,121.780594 360.796234,121.246262 
	C356.412720,120.721519 353.088928,123.024147 351.233917,127.038696 
	C350.192505,129.292557 349.671204,131.785706 348.641724,134.046341 
	C344.949310,142.154434 336.137939,146.601532 327.625549,144.782333 
	C319.025360,142.944351 312.826782,135.458664 313.088623,126.395149 
	C313.260437,120.448364 313.972107,114.471397 314.998444,108.605309 
	C316.739044,98.656761 319.517120,88.858383 320.742279,78.860031 
	C321.906830,69.356331 315.543701,60.568596 306.903473,58.166740 
	C303.744507,57.288589 300.359070,57.224937 297.076965,56.789719 
z"/>
<path fill="#BF9377" opacity="1.000000" stroke="none"
	d="
M296.766113,56.945076 
	C300.359070,57.224937 303.744507,57.288589 306.903473,58.166740 
	C315.543701,60.568596 321.906830,69.356331 320.742279,78.860031 
	C319.517120,88.858383 316.739044,98.656761 314.998444,108.605309 
	C313.972107,114.471397 313.260437,120.448364 313.088623,126.395149 
	C312.826782,135.458664 319.025360,142.944351 327.625549,144.782333 
	C336.137939,146.601532 344.949310,142.154434 348.641724,134.046341 
	C349.671204,131.785706 350.192505,129.292557 351.233917,127.038696 
	C353.088928,123.024147 356.412720,120.721519 360.796234,121.246262 
	C365.259949,121.780594 368.687775,124.322342 369.123352,129.185623 
	C370.206940,141.284149 371.088470,153.401154 371.999603,165.514618 
	C373.272888,182.442520 374.244202,199.398163 375.847534,216.294205 
	C376.721375,225.502365 383.650055,232.195236 391.739716,232.982849 
	C401.645203,233.947250 409.167358,229.069641 412.492218,219.526337 
	C417.158508,206.132568 424.666962,200.923187 439.402527,201.367737 
	C419.508514,221.913727 399.359772,242.130096 379.190918,262.326355 
	C378.499451,263.018768 377.606293,263.509796 376.518066,263.938385 
	C373.500153,261.174988 370.771301,258.567932 367.850250,255.690430 
	C323.499023,211.238876 279.340942,167.056824 235.172394,122.885277 
	C234.472488,122.185333 233.644196,121.613792 232.875824,120.982330 
	C254.068954,99.688370 275.262085,78.394402 296.766113,56.945076 
z"/>
<path fill="#F79B31" opacity="1.000000" stroke="none"
	d="
M22.570034,470.148712 
	C37.855827,465.556549 52.799118,461.160187 68.562851,456.718567 
	C78.044632,458.142273 83.984367,454.338684 88.104446,447.009827 
	C102.988960,438.241974 118.642349,430.530823 132.545807,420.414612 
	C146.995529,409.901031 160.487030,397.787964 173.073853,385.064819 
	C190.553955,367.395386 205.132812,347.276520 216.836990,325.244659 
	C221.753525,315.989777 226.237335,306.505188 230.926758,297.129456 
	C242.563461,273.863831 269.853729,266.129089 292.090393,279.668213 
	C299.905548,284.426575 307.780243,289.125671 315.885345,293.358612 
	C324.034943,297.614777 332.694672,298.432434 342.170166,295.138855 
	C348.942535,301.060760 355.051544,307.001007 361.160522,312.941254 
	C356.706604,317.953888 350.760742,320.110474 344.426361,320.924164 
	C333.422699,322.337555 323.728119,319.066162 314.308258,313.106781 
	C305.360748,307.446259 295.915894,301.661102 285.872711,298.855835 
	C270.675781,294.611084 253.999771,299.982788 244.180313,314.162537 
	C238.502548,322.361450 234.587204,331.800323 230.060593,340.772919 
	C219.973022,360.768402 207.949936,379.478088 193.139755,396.306427 
	C185.722366,404.734528 178.434784,413.362122 170.273666,421.032532 
	C153.708710,436.601501 135.713608,450.359314 115.873543,461.661591 
	C96.649788,472.612762 76.728569,481.924591 55.473209,488.096344 
	C43.821568,491.479523 31.937416,494.063599 20.147764,496.966003 
	C19.370062,497.157471 18.504234,496.990997 16.483807,496.990997 
	C18.450058,487.869110 20.338795,479.106842 22.570034,470.148712 
z"/>
<path fill="#CCCBCA" opacity="1.000000" stroke="none"
	d="
M361.450409,312.802094 
	C355.051544,307.001007 348.942535,301.060760 342.537689,294.964783 
	C340.774750,293.229584 339.355804,291.602020 337.833496,290.077698 
	C292.351257,244.534698 246.858780,199.001923 201.213135,153.168640 
	C206.483063,147.301178 211.907745,141.732605 217.711975,136.388336 
	C218.943619,137.814285 219.643463,139.167999 220.669785,140.195633 
	C259.700500,179.275604 298.664459,218.423706 337.984772,257.210510 
	C341.471558,260.649963 347.121460,262.482880 352.098755,263.671082 
	C357.833862,265.040253 365.836182,260.488495 368.042450,255.960876 
	C370.771301,258.567932 373.500153,261.174988 376.623230,264.261230 
	C382.336914,270.226196 387.656311,275.711975 392.975708,281.197754 
	C382.563904,291.686157 372.152100,302.174530 361.450409,312.802094 
z"/>
<path fill="#E5E5E5" opacity="1.000000" stroke="none"
	d="
M367.850250,255.690430 
	C365.836182,260.488495 357.833862,265.040253 352.098755,263.671082 
	C347.121460,262.482880 341.471558,260.649963 337.984772,257.210510 
	C298.664459,218.423706 259.700500,179.275604 220.669785,140.195633 
	C219.643463,139.167999 218.943619,137.814285 218.027008,136.268494 
	C222.736633,131.036865 227.510788,126.149399 232.580383,121.122131 
	C233.644196,121.613792 234.472488,122.185333 235.172394,122.885277 
	C279.340942,167.056824 323.499023,211.238876 367.850250,255.690430 
z"/>
<path fill="#A47865" opacity="1.000000" stroke="none"
	d="
M393.291046,281.049011 
	C387.656311,275.711975 382.336914,270.226196 376.912323,264.417542 
	C377.606293,263.509796 378.499451,263.018768 379.190918,262.326355 
	C399.359772,242.130096 419.508514,221.913727 439.843323,201.428864 
	C440.452606,201.090408 440.878967,201.023636 442.094452,200.957825 
	C452.866821,200.947540 462.850067,200.936295 472.833344,200.925049 
	C472.069427,201.948807 471.418518,203.085419 470.525116,203.979843 
	C444.900452,229.634888 419.251434,255.265625 393.291046,281.049011 
z"/>
<path fill="#006BDB" opacity="1.000000" stroke="none"
	d="
M438.977966,307.952881 
	C439.527802,306.929657 440.077667,305.906433 441.142517,303.924835 
	C446.581177,312.535828 451.841827,319.968414 456.152374,327.916229 
	C461.573120,337.910950 466.577026,348.174469 471.012878,358.639008 
	C472.719940,362.666138 472.370880,367.564850 472.539490,372.601135 
	C471.051147,373.587830 469.986725,374.051453 468.912048,374.489990 
	C456.132904,379.704651 444.422913,377.064758 434.802795,367.975861 
	C425.401550,359.093842 422.332703,347.690796 427.179260,335.192566 
	C430.048218,327.794037 433.741364,320.716949 436.996063,313.464874 
	C437.793152,311.688782 438.324432,309.793396 438.977966,307.952881 
z"/>
<path fill="#0059BE" opacity="1.000000" stroke="none"
	d="
M438.657349,308.083801 
	C438.324432,309.793396 437.793152,311.688782 436.996063,313.464874 
	C433.741364,320.716949 430.048218,327.794037 427.179260,335.192566 
	C422.332703,347.690796 425.401550,359.093842 434.802795,367.975861 
	C444.422913,377.064758 456.132904,379.704651 468.912048,374.489990 
	C469.986725,374.051453 471.051147,373.587830 472.471130,373.052917 
	C472.357574,384.247894 464.940125,394.699158 454.360748,398.684357 
	C441.670288,403.464752 429.240601,402.327698 418.769135,393.069641 
	C409.358612,384.749664 405.642609,370.273621 411.635284,355.806030 
	C418.644989,338.882965 427.985657,323.264648 438.657349,308.083801 
z"/>
<path fill="#0059BF" opacity="1.000000" stroke="none"
	d="
M473.002960,200.634064 
	C462.850067,200.936295 452.866821,200.947540 442.412872,200.892822 
	C442.639954,199.720551 443.162598,198.440384 444.062103,197.534332 
	C455.184113,186.331741 466.351288,175.173904 477.544495,164.042419 
	C478.342773,163.248566 479.436005,162.751343 480.733185,162.049805 
	C485.786102,167.109848 490.497925,172.236282 495.794586,177.999039 
	C488.708557,184.998016 480.940582,192.670532 473.002960,200.634064 
z"/>
</svg>