<?xml version="1.0" encoding="UTF-8"?>
<!DOCTYPE svg PUBLIC "-//W3C//DTD SVG 1.1//EN" "http://www.w3.org/Graphics/SVG/1.1/DTD/svg11.dtd">
<svg xmlns="http://www.w3.org/2000/svg" version="1.1" width="512px" height="512px" style="shape-rendering:geometricPrecision; text-rendering:geometricPrecision; image-rendering:optimizeQuality; fill-rule:evenodd; clip-rule:evenodd" xmlns:xlink="http://www.w3.org/1999/xlink">
<g><path style="opacity:0.989" fill="darkgray" d="M 246.5,14.5 C 319.064,16.0106 371.564,49.0106 404,113.5C 421.153,153.529 422.82,194.196 409,235.5C 393.929,277.64 374.596,317.64 351,355.5C 320.714,404.275 287.547,450.941 251.5,495.5C 195.494,429.929 148.328,358.262 110,280.5C 100.878,260.133 93.5442,239.133 88,217.5C 77.1539,161.209 90.4873,111.543 128,68.5C 160.39,34.8882 199.89,16.8882 246.5,14.5 Z M 249.5,109.5 C 293.421,113.088 317.421,136.755 321.5,180.5C 319.161,217.352 300.161,240.519 264.5,250C 225.619,254.318 198.785,238.484 184,202.5C 175.187,166.927 186.021,139.093 216.5,119C 226.956,113.474 237.956,110.307 249.5,109.5 Z"/></g>
</svg>
